#!OML:ASF H:\GeneralSubjects\Female5\Project 1\Capture day 1\Session 1\Female5.ASF
:FULLY-SPECIFIED
:DEGREES
251
root -16.1825 15.3087 1.50994 319.494 -92.5766 -314.045
lowerback 8.93996 -1.15928 -2.0173
upperback -9.61403 -1.78303 3.05151
thorax -15.635 -0.468676 5.00735
lowerneck -16.7169 1.50597 2.29963
upperneck 36.1844 -1.12694 3.24924
head 15.5894 -0.157191 0.647672
rclavicle 1.46107e-014 -1.19271e-015
rhumerus -58.9771 17.4278 -72.2369
rradius 23.2389
rwrist -10.6697
rhand -23.1951 -20.282
rfingers 7.12502
rthumb 3.25473 -50.2369
lclavicle 1.46107e-014 -1.19271e-015
lhumerus -39.6419 -2.28236 83.493
lradius 44.8861
lwrist -8.32926
lhand -30.3335 29.2535
lfingers 7.12502
lthumb -3.63953 59.2022
rfemur -24.9233 9.46086 29.5473
rtibia 13.3848
rfoot -14.9017 -23.6615
rtoes 0.035643
lfemur 18.8702 -8.42875 -35.7006
ltibia 9.91221
lfoot 691.622 -19.0268
ltoes -11.253
252
root -16.4765 15.352 1.47043 310.881 -93.0977 -305.776
lowerback 9.01981 -1.18668 -1.4371
upperback -9.56206 -1.70856 3.18727
thorax -15.639 -0.490089 4.81861
lowerneck -16.6179 1.51087 2.42814
upperneck 36.0771 -1.31601 3.64727
head 15.5242 -0.165999 0.758746
rclavicle -1.70955e-014 1.98785e-015
rhumerus -58.8816 17.1504 -72.2144
rradius 23.3879
rwrist -11.4565
rhand -23.4522 -20.2931
rfingers 7.12502
rthumb 3.00636 -50.2516
lclavicle -1.70955e-014 1.98785e-015
lhumerus -40.5136 -1.20033 83.103
lradius 42.2045
lwrist -8.77463
lhand -30.218 29.5172
lfingers 7.12502
lthumb -3.52795 59.4677
rfemur -23.557 9.08872 30.7601
rtibia 13.9343
rfoot -14.7326 -22.7952
rtoes 0.132062
lfemur 17.444 -5.20706 -32.7283
ltibia 14.3602
lfoot 696.879 -18.9982
ltoes -8.34382
253
root -16.7645 15.404 1.42484 305.272 -93.5447 -300.577
lowerback 9.15271 -1.20365 -1.13709
upperback -9.46499 -1.66166 3.32324
thorax -15.6138 -0.49183 4.79428
lowerneck -16.5179 1.4809 2.52897
upperneck 35.9504 -1.52858 4.00444
head 15.4501 -0.194848 0.852449
rclavicle -1.09332e-014 -3.97569e-015
rhumerus -58.8489 17.1027 -72.395
rradius 23.6602
rwrist -12.3352
rhand -23.5323 -20.2096
rfingers 7.12502
rthumb 2.92901 -50.1692
lclavicle -1.09332e-014 -3.97569e-015
lhumerus -41.2188 0.0236241 82.5645
lradius 39.3185
lwrist -9.47136
lhand -29.5379 30.2097
lfingers 7.12502
lthumb -2.87117 60.1701
rfemur -21.6972 8.90494 31.7867
rtibia 13.7349
rfoot -15.1188 -22.1127
rtoes 0.913671
lfemur 15.7537 -2.27031 -29.8801
ltibia 19.4247
lfoot 701.107 -16.6882
ltoes -6.79874
254
root -17.0468 15.4609 1.374 300.643 -93.9157 -296.39
lowerback 9.30642 -1.21589 -1.04984
upperback -9.3389 -1.63992 3.46777
thorax -15.5597 -0.480534 4.90459
lowerneck -16.4236 1.41935 2.58139
upperneck 35.8329 -1.74164 4.28625
head 15.3812 -0.241584 0.922413
rclavicle 1.38155e-014 -1.63003e-014
rhumerus -58.8726 17.2908 -72.7522
rradius 24
rwrist -13.0567
rhand -23.4007 -20.0124
rfingers 7.12502
rthumb 3.05614 -49.9703
lclavicle 1.38155e-014 -1.63003e-014
lhumerus -41.7649 1.49813 81.8142
lradius 36.3336
lwrist -10.6596
lhand -28.3795 30.9641
lfingers 7.12502
lthumb -1.75239 60.9366
rfemur -19.498 8.83232 32.6969
rtibia 12.9518
rfoot -15.7154 -21.7262
rtoes 1.4894
lfemur 13.7978 0.209157 -27.2395
ltibia 24.9406
lfoot 703.732 -12.5691
ltoes -6.85054
255
root -17.3232 15.5189 1.32028 296.059 -94.2748 -292.231
lowerback 9.44645 -1.22655 -1.04561
upperback -9.20288 -1.62737 3.63228
thorax -15.4819 -0.46355 5.08531
lowerneck -16.3331 1.33242 2.56574
upperneck 35.7388 -1.933 4.47426
head 15.3224 -0.301721 0.968685
rclavicle -9.93923e-017 7.15625e-015
rhumerus -58.9279 17.6818 -73.2163
rradius 24.3629
rwrist -13.4397
rhand -23.0853 -19.7148
rfingers 7.12502
rthumb 3.36076 -49.6681
lclavicle -9.93923e-017 7.15625e-015
lhumerus -42.1919 3.30193 80.7803
lradius 33.3915
lwrist -12.4946
lhand -27.1263 31.3261
lfingers 7.12502
lthumb -0.542026 61.3052
rfemur -17.1746 8.79183 33.5866
rtibia 11.8581
rfoot -16.3418 -21.4037
rtoes 2.42809
lfemur 11.5641 2.20884 -24.8055
ltibia 30.6392
lfoot 705.249 -7.70528
ltoes -8.00896
256
root -17.5925 15.5747 1.2675 291.491 -94.6888 -288.023
lowerback 9.54815 -1.23436 -0.991077
upperback -9.0765 -1.60229 3.81533
thorax -15.3935 -0.446264 5.25461
lowerneck -16.2432 1.23068 2.46673
upperneck 35.673 -2.08628 4.57949
head 15.2748 -0.368514 1.00182
rclavicle -3.60794e-014 3.22031e-014
rhumerus -58.9793 18.1939 -73.6848
rradius 24.7267
rwrist -13.4086
rhand -22.6693 -19.3664
rfingers 7.12502
rthumb 3.76246 -49.313
lclavicle -3.60794e-014 3.22031e-014
lhumerus -42.5774 5.41819 79.4268
lradius 30.667
lwrist -14.9077
lhand -26.1308 31.1371
lfingers 7.12502
lthumb 0.419442 61.1165
rfemur -14.9333 8.70712 34.5147
rtibia 10.7138
rfoot -16.9308 -21.1102
rtoes 3.16296
lfemur 9.05475 3.77222 -22.5735
ltibia 36.273
lfoot 706.163 -3.16705
ltoes -10.245
257
root -17.853 15.625 1.21959 287.455 -95.1989 -284.232
lowerback 9.5896 -1.22874 -0.791054
upperback -8.97362 -1.53716 4.00418
thorax -15.3024 -0.427399 5.3375
lowerneck -16.1685 1.11599 2.29612
upperneck 35.6362 -2.20543 4.60686
head 15.2419 -0.440627 1.02139
rclavicle -9.14409e-015 6.12257e-014
rhumerus -58.9874 18.7292 -74.0665
rradius 25.0823
rwrist -13.0344
rhand -22.2895 -19.0358
rfingers 7.12502
rthumb 4.12922 -48.9755
lclavicle -9.14409e-015 6.12257e-014
lhumerus -42.9816 7.69682 77.8038
lradius 28.3126
lwrist -17.5632
lhand -25.6289 30.5436
lfingers 7.12502
lthumb 0.90415 60.5214
rfemur -12.9246 8.56438 35.4923
rtibia 9.65874
rfoot -17.4153 -20.8024
rtoes 3.5144
lfemur 6.25824 4.99503 -20.5485
ltibia 41.6236
lfoot 706.632 0.986903
ltoes -14.1803
258
root -18.1032 15.6677 1.17957 284.548 -95.799 -281.424
lowerback 9.55985 -1.1945 -0.4183
upperback -8.9012 -1.40961 4.18247
thorax -15.2125 -0.400325 5.29474
lowerneck -16.1146 0.994404 2.08198
upperneck 35.6157 -2.29268 4.56429
head 15.2193 -0.513638 1.02535
rclavicle 1.15295e-014 -8.34896e-015
rhumerus -58.9123 19.2193 -74.3039
rradius 25.4281
rwrist -12.5017
rhand -22.0656 -18.8059
rfingers 7.12502
rthumb 4.34544 -48.7413
lclavicle 1.15295e-014 -8.34896e-015
lhumerus -43.442 9.90547 76.0487
lradius 26.4484
lwrist -20.0228
lhand -25.6327 29.8291
lfingers 7.12502
lthumb 0.900504 59.807
rfemur -11.28 8.34916 36.4862
rtibia 8.83519
rfoot -17.7575 -20.4133
rtoes 3.26772
lfemur 3.15273 5.9752 -18.759
ltibia 46.5406
lfoot 706.924 4.55823
ltoes -19.7834
259
root -18.3419 15.7017 1.14949 283.076 -96.4342 -279.898
lowerback 9.47774 -1.11636 0.099517
upperback -8.86496 -1.20682 4.32129
thorax -15.1426 -0.356858 5.10805
lowerneck -16.0826 0.87082 1.8377
upperneck 35.6054 -2.36318 4.49728
head 15.2061 -0.585967 1.02777
rclavicle 1.20265e-014 -3.61788e-014
rhumerus -58.7449 19.6117 -74.3795
rradius 25.7783
rwrist -12.0243
rhand -22.0588 -18.7235
rfingers 7.12502
rthumb 4.35199 -48.6588
lclavicle 1.20265e-014 -3.61788e-014
lhumerus -43.9864 11.7541 74.3633
lradius 25.1771
lwrist -21.8248
lhand -26.0121 29.2519
lfingers 7.12502
lthumb 0.534022 59.231
rfemur -9.99212 8.16658 37.4301
rtibia 8.20801
rfoot -17.9621 -20.0202
rtoes 2.4062
lfemur -0.259171 6.77237 -17.262
ltibia 50.9197
lfoot 707.075 7.51444
ltoes -26.5035
260
root -18.5689 15.727 1.13038 282.984 -97.0533 -279.627
lowerback 9.39043 -0.984618 0.724492
upperback -8.86193 -0.92289 4.39505
thorax -15.1162 -0.290652 4.77137
lowerneck -16.0682 0.754261 1.62614
upperneck 35.5905 -2.4245 4.40942
head 15.1944 -0.651825 1.01747
rclavicle 3.05134e-014 -2.94201e-014
rhumerus -58.5023 19.8738 -74.3074
rradius 26.164
rwrist -11.7851
rhand -22.2726 -18.7818
rfingers 7.12502
rthumb 4.14558 -48.7212
lclavicle 3.05134e-014 -2.94201e-014
lhumerus -44.605 12.995 72.9515
lradius 24.5474
lwrist -22.5996
lhand -26.5558 29.0248
lfingers 7.12502
lthumb 0.00893145 59.0045
rfemur -9.00157 8.09134 38.2768
rtibia 7.73039
rfoot -18.0729 -19.6767
rtoes 1.18595
lfemur -3.92137 7.3899 -16.0914
ltibia 54.6791
lfoot 706.749 9.45353
ltoes -32.1264
261
root -18.7856 15.7448 1.12208 284.07 -97.6179 -280.463
lowerback 9.34602 -0.802892 1.40075
upperback -8.87471 -0.569524 4.39477
thorax -15.1371 -0.201392 4.31002
lowerneck -16.0961 0.650727 1.43929
upperneck 35.5814 -2.48527 4.34752
head 15.1964 -0.709145 1.01423
rclavicle 2.21645e-014 -2.62396e-014
rhumerus -58.1855 20.005 -74.1018
rradius 26.615
rwrist -11.8516
rhand -22.6389 -18.9625
rfingers 7.12502
rthumb 3.79179 -48.9085
lclavicle 2.21645e-014 -2.62396e-014
lhumerus -45.2808 13.5846 71.9074
lradius 24.5443
lwrist -22.2525
lhand -26.9568 29.2693
lfingers 7.12502
lthumb -0.378363 59.2487
rfemur -8.20574 8.16277 38.994
rtibia 7.34977
rfoot -18.162 -19.3937
rtoes 0.00428125
lfemur -7.71825 7.79321 -15.249
ltibia 57.7238
lfoot 705.448 9.98658
ltoes -34.85
262
root -18.9942 15.7569 1.12319 286.1 -98.1014 -282.231
lowerback 9.38038 -0.58603 2.05712
upperback -8.88063 -0.174049 4.32578
thorax -15.1941 -0.0939065 3.77565
lowerneck -16.167 0.56971 1.26927
upperneck 35.5744 -2.54072 4.34377
head 15.2112 -0.752631 1.03368
rclavicle -8.15017e-015 -1.51076e-014
rhumerus -57.7936 20.045 -73.7936
rradius 27.1483
rwrist -12.1939
rhand -23.0677 -19.2146
rfingers 7.12502
rthumb 3.37775 -49.1675
lclavicle -8.15017e-015 -1.51076e-014
lhumerus -46.0162 13.7224 71.1542
lradius 25.0788
lwrist -21.0078
lhand -27.1714 29.8452
lfingers 7.12502
lthumb -0.585633 59.8242
rfemur -7.49026 8.38426 39.5571
rtibia 7.01958
rfoot -18.2811 -19.1429
rtoes -0.776449
lfemur -11.4947 7.91128 -14.6968
ltibia 59.9833
lfoot 703.177 8.85065
ltoes -34.4057
